<?xml version="1.0" encoding="utf-8"?>
<!-- Generator: Adobe Illustrator 25.0.1, SVG Export Plug-In . SVG Version: 6.00 Build 0)  -->
<svg version="1.1" id="レイヤー_1" xmlns="http://www.w3.org/2000/svg" xmlns:xlink="http://www.w3.org/1999/xlink" x="0px"
	 y="0px" viewBox="0 0 44.3 44.3" style="enable-background:new 0 0 44.3 44.3;" xml:space="preserve">
<style type="text/css">
	.st0{fill:#4EBEC7;}
</style>
<g>
	<path class="st0" d="M30.99,32.49c-0.38,0-0.77-0.15-1.06-0.44L12.25,14.38c-0.59-0.59-0.59-1.54,0-2.12s1.54-0.59,2.12,0
		l17.67,17.67c0.59,0.59,0.59,1.54,0,2.12C31.76,32.34,31.37,32.49,30.99,32.49z"/>
	<path class="st0" d="M13.31,32.49c-0.38,0-0.77-0.15-1.06-0.44c-0.59-0.59-0.59-1.54,0-2.12l17.67-17.67
		c0.59-0.59,1.54-0.59,2.12,0s0.59,1.54,0,2.12L14.38,32.05C14.08,32.34,13.7,32.49,13.31,32.49z"/>
	<path class="st0" d="M22.15,44.3C9.94,44.3,0,34.37,0,22.15S9.94,0,22.15,0S44.3,9.94,44.3,22.15S34.37,44.3,22.15,44.3z M22.15,3
		C11.59,3,3,11.59,3,22.15S11.59,41.3,22.15,41.3S41.3,32.71,41.3,22.15S32.71,3,22.15,3z"/>
</g>
</svg>
