<?xml version="1.0" encoding="utf-8"?>
<!-- Generator: Adobe Illustrator 24.3.0, SVG Export Plug-In . SVG Version: 6.00 Build 0)  -->
<svg version="1.1" id="レイヤー_1" xmlns="http://www.w3.org/2000/svg" xmlns:xlink="http://www.w3.org/1999/xlink" x="0px"
	 y="0px" viewBox="0 0 448.53 177.79" style="enable-background:new 0 0 448.53 177.79;" xml:space="preserve">
<style type="text/css">
	.st0{fill:#4EBEC7;}
</style>
<g>
	<g>
		<path class="st0" d="M47.35,167.54c-2.84,0.39-6.64-2.92-5.53-6.8C-3.57,142.27-5.75,92.61,6.13,54.86
			c2.1-5.9,4.27-11.99,3.62-19.96c-0.21-1.85,1.76-3.4,3.51-2.8c16.36,5.06,20.79,14.09,20.84,18.63c0.25,2.97-5.43,7.86-8.84,11.23
			c2.55-0.08,5.73-2.9,8.93-4.11c4.36,1.37-0.88,4.6-2.74,6.23c-3.8,3.16-8.52,7.09-9.42,9.47c-1.63,4.67-1.06,14.99-1,20.71
			c-0.86,7.87,6.63,3.82,4.84,9.19c-3.32,5.57-5.37,14.33-3.13,18.49c2.73,5.07,19.32,21.87,21.75,23.98
			c10.3,7.57,16-6.85,22.08-14.32c-0.59-1.41,23.27-18.89,20.08-9.49c-5.51,6.46-26.41,24.8-15.28,31.77
			c2.02,0.86,2.25,4.04,0.86,5.27c-2.84,3.68-8.48,1.58-12.21,1.65C55.87,160.97,52.94,168.05,47.35,167.54z"/>
	</g>
	<g>
		<path class="st0" d="M133.39,116.47c-4.68,0.31-7.51-3.41-11.12-5.28c-0.66-0.28-1.13-0.86-1.27-1.57
			c-0.13-0.67,0.09-1.35,0.57-1.82c2.77-2.67,2.11-10.11,1.66-12.51c-0.41-2.17-2.88-8.96-6.6-12.89c-1.07-1.13-1.31-2.82-0.62-4.32
			c2.95-5.41-27.38-20.08-18.8-22.96c22.32-1.08,36.25,15.92,44.48,35.14C146.12,106.08,147.07,115.11,133.39,116.47z"/>
	</g>
	<g>
		<path class="st0" d="M188.32,144.26c-2.1,0.21-7.32-0.71-4.16-3.27c8.29-4.16,25.66-11.86,21.6-22.59
			c-6.76-12.6-19.21,2.31-29.29,2.23c-9.26-0.07-18.29-8.12-17.43-18.87c-5.65,4.24-8.89,1.18-11.28-3.1
			c-1.45-3.84,10.6-5.68,14-8.91c2.49-5.07,3.19-14.7,8.92-15.71c3.48-0.08,9.13-0.57,10.15,2.89c-0.62,3.14-3.88,4.64-5.43,8.47
			c7.29-1.98,31.42-7.24,35.21,0.25c0.23,2.12,0.1,6.12-2.87,6.14c-13.2-4.38-20.81-1.6-35.11,4.03c-0.6,0.24-1.01,0.78-1.08,1.41
			c-0.71,6.62-0.14,11.8,1.38,12.57c3.97,1.42,10.44-0.66,14.44-2.06c4.33-2.05,12.53-2.52,18.19-0.53
			C233.83,116.82,210.52,144.58,188.32,144.26z"/>
	</g>
	<g>
		<path class="st0" d="M275.64,79.32c-9.38-0.83-27.5-0.72-36.42-6.65c-9.25-9.49,2.86-13.79,10.38-7.99
			c3.55,2.37,11.71,4.61,16.78,4.61c4.62,0.2,8.59-2.54,12.61-2.32C288.25,69.11,284.32,80.12,275.64,79.32z"/>
	</g>
	<g>
		<path class="st0" d="M266.38,124.37c-9.69-0.02-17.91-1.65-25.43-5.33c-7.72-5.17-17.04-10.69-11.46-20.59
			c9.95-8.63,11.2,17.34,29.55,15.3c8.72,1.01,16.03-5.31,23.9-6.34c4.23-0.19,7.21,3.77,9.03,7.3
			C294.08,121.73,275.26,124.31,266.38,124.37z"/>
	</g>
	<g>
		<path class="st0" d="M289.14,67.12c-3.48,0.18-6.29-3.83-8.89-5.05c-1.21-0.59-2.14-2.25-1.59-3.99
			c1.71-5.14,8.97-0.81,11.51,0.82C295.31,63.12,293.72,66.71,289.14,67.12z"/>
	</g>
	<g>
		<path class="st0" d="M302.28,65.26c-5.27-0.83-8.48-4.78-10.85-8.25c-2.09-3.65-0.08-6.23,3.07-6.52
			c4.23-0.05,10.46,6.66,11.06,8.17C306.58,61.2,305.34,65.22,302.28,65.26z"/>
	</g>
	<g>
		<path class="st0" d="M372.07,21.44c-9.83-0.6-5.77-16.6,0.77-19.94c8.35-3.33,23.43,0.84,23.92,8.26c0,2.69-4.31,7.88-6.61,9.03
			c-2.99,0.76-5.24,0.91-7.81,0.7C378.6,18.77,375.73,21.26,372.07,21.44z"/>
	</g>
	<g>
		<path class="st0" d="M364.03,83.64c-4.13,0.2-4.05-6.83-6.11-8.28c-14.51-7.17-6.58-21.39-2.84-32.73
			c-6.65,2.9-13.16,6.27-17.74,9.19c-2.35,1.55-5.72,0.98-7.45-1.24c-2.21-3.05-13.64-16.06-5.99-15.26
			c3.07,1.55,7.1,2.64,9.23,2.79c3.12-0.17,15.3-6.09,20.33-8.03c6.48-2.59,26.52-7.73,34.6-8.57c10.09-0.33,24.66-2.33,35.78,1.01
			c6.22,4.52,12.66,12.12,0.97,13.24c-3.91-0.42-7.45-1.41-11.27,0.48c0.11,0.16-15.35,4.97-10.29-0.46
			c21.71-10.6-39.38,1.87-42.02,4.33c12.23,7.56,20.18,5.2,31.98,3.61c2.35-0.31,4.38-0.59,6.57-2.1c0.85-0.6,2.07-0.57,2.9,0.06
			c3.65,3.66,12.31,11.03,9.49,17.43c-2.08,4.05-4.49,10.42-4.45,15.05c0.01,0.78-0.29,1.51-0.84,2.07
			c-0.64,0.65-1.58,0.98-2.49,0.87c-3.27-0.39-8.54-0.39-11.82,0.02C387.61,77.49,371.94,81.11,364.03,83.64z M393.03,49.3
			c-5.91,0.74-19.54,5.92-25.73,6.32c-3.33,3.56-2.7,11.79-2.15,15.37c16.69-1.8,20.34-5.55,26.86-15.6
			c1.51-3.4,2.07-5.08,1.25-6.09C393.24,49.31,393.17,49.3,393.03,49.3z"/>
	</g>
	<g>
		<path class="st0" d="M366.65,177.78c-9.28,0-23.22-11.08-26.62-24.84c-0.35-1.24,0.69-2.55,1.96-2.52
			c8.03,3.37,16.08,6.92,19.2,6.62c4.17-0.32,10.15-6.48,13.88-15.33c2.96-7.56,2.37-24.36,0.93-30.22
			c-0.1-0.42-0.45-0.58-0.81-0.43c-5.7,2.19-13.82,4.73-18.19,5.14c-4.78-0.03-9.79-7.11-12.03-8.95
			c-19,8.97-5.13,10.99-11.41,20.23c-1.89,1.6-4.78,1.7-6.93,0.48c-8.83-4.88-12.84-13.38-11.91-25.26
			c1.36-12.97,7.29-24.54,15.53-24.22c7.31-0.37,28.73,6.71,15.09,13.95c30.25-7.49,50.44-10.82,82.59-11.62
			c6.04,0.67,3.43-1.55,6.92-2.67c3.17,1.47,5.9,5.29,8.61,6.57c4.99,2.91,6.85,6.22,3.03,10.41c-4.72,5.91-0.98,11.21-3.74,18.87
			c-1.77,6.3-9.7,15.96-14.21,15.96c-4.86-0.11-10.48-10.55-13.9-20.16c-5.44-3.46-18.91-0.67-23.42,0.56
			c-0.43,0.15-0.7,0.56-0.66,1.01c2.46,27.99,2.31,40.92-0.5,44.62c-3.26,4.39-7.35,3.99-10.87,7.53
			C375.89,168.82,376.66,177.78,366.65,177.78z M402.66,93.69c6.26,0.04,10.78,6.07,14,14.06c2.1,1.78,6.59,3.61,8.04,1.75
			c-0.26-3.31,1.69-11.2,2.53-15.76c0.95-4.8-5.47-4.7-9.87-4.89c-10.93-0.36-70.85,6.55-78.82,16.57c3.88-0.94,5.96-1.18,8.85-0.88
			C366.08,104.47,385.16,95.03,402.66,93.69z"/>
	</g>
</g>
</svg>
